<mxfile host="app.diagrams.net" modified="2020-09-28T11:35:13.193Z" agent="5.0 (Windows NT 10.0; WOW64) AppleWebKit/537.36 (KHTML, like Gecko) Chrome/85.0.4183.121 Safari/537.36" etag="jkwRd4L5dluvnUy9gCOt" version="13.6.6" type="github">
  <diagram name="Page-1" id="03018318-947c-dd8e-b7a3-06fadd420f32">
    <mxGraphModel dx="1102" dy="614" grid="1" gridSize="10" guides="1" tooltips="1" connect="1" arrows="1" fold="1" page="1" pageScale="1" pageWidth="1100" pageHeight="850" background="#ffffff" math="0" shadow="0">
      <root>
        <mxCell id="0" />
        <mxCell id="1" parent="0" />
        <mxCell id="677b7b8949515195-1" value="" style="whiteSpace=wrap;html=1;rounded=0;shadow=0;labelBackgroundColor=none;strokeColor=#000000;strokeWidth=1;fillColor=none;fontFamily=Verdana;fontSize=12;fontColor=#000000;align=center;comic=1;" parent="1" vertex="1">
          <mxGeometry x="30" y="20" width="1060" height="650" as="geometry" />
        </mxCell>
        <mxCell id="677b7b8949515195-2" value="一体化作战平台" style="whiteSpace=wrap;html=1;rounded=0;shadow=0;labelBackgroundColor=none;strokeWidth=1;fontFamily=Verdana;fontSize=28;align=center;comic=1;" parent="1" vertex="1">
          <mxGeometry x="30" y="30" width="220" height="50" as="geometry" />
        </mxCell>
        <mxCell id="677b7b8949515195-3" value="全域搜索" style="strokeWidth=1;shadow=0;dashed=0;align=center;html=1;shape=mxgraph.mockup.forms.searchBox;strokeColor=#999999;mainText=;strokeColor2=#008cff;fontColor=#666666;fontSize=17;align=left;spacingLeft=3;rounded=0;labelBackgroundColor=none;comic=1;" parent="1" vertex="1">
          <mxGeometry x="845" y="67" width="220" height="30" as="geometry" />
        </mxCell>
        <mxCell id="677b7b8949515195-4" value="邮件" style="text;html=1;points=[];align=left;verticalAlign=top;spacingTop=-4;fontSize=14;fontFamily=Verdana" parent="1" vertex="1">
          <mxGeometry x="800" y="40" width="60" height="20" as="geometry" />
        </mxCell>
        <mxCell id="677b7b8949515195-5" value="即时通讯" style="text;html=1;points=[];align=left;verticalAlign=top;spacingTop=-4;fontSize=14;fontFamily=Verdana" parent="1" vertex="1">
          <mxGeometry x="860" y="40" width="60" height="20" as="geometry" />
        </mxCell>
        <mxCell id="677b7b8949515195-6" value="系统通知" style="text;html=1;points=[];align=left;verticalAlign=top;spacingTop=-4;fontSize=14;fontFamily=Verdana" parent="1" vertex="1">
          <mxGeometry x="930" y="40" width="60" height="20" as="geometry" />
        </mxCell>
        <mxCell id="677b7b8949515195-7" value="个人中心" style="text;html=1;points=[];align=left;verticalAlign=top;spacingTop=-4;fontSize=14;fontFamily=Verdana" parent="1" vertex="1">
          <mxGeometry x="1000" y="40" width="60" height="20" as="geometry" />
        </mxCell>
        <mxCell id="677b7b8949515195-8" value="" style="whiteSpace=wrap;html=1;rounded=0;shadow=0;labelBackgroundColor=none;strokeWidth=1;fillColor=none;fontFamily=Verdana;fontSize=12;align=center;comic=1;" parent="1" vertex="1">
          <mxGeometry x="690" y="120" width="160" height="540" as="geometry" />
        </mxCell>
        <mxCell id="677b7b8949515195-9" value="" style="line;strokeWidth=1;html=1;rounded=0;shadow=0;labelBackgroundColor=none;fillColor=none;fontFamily=Verdana;fontSize=14;fontColor=#000000;align=center;comic=1;" parent="1" vertex="1">
          <mxGeometry x="29" y="90" width="1060" height="30" as="geometry" />
        </mxCell>
        <mxCell id="677b7b8949515195-10" value="" style="whiteSpace=wrap;html=1;rounded=0;shadow=0;labelBackgroundColor=none;strokeWidth=1;fillColor=none;fontFamily=Verdana;fontSize=12;align=center;comic=1;" parent="1" vertex="1">
          <mxGeometry x="280" y="30" width="480" height="50" as="geometry" />
        </mxCell>
        <mxCell id="677b7b8949515195-11" value="Work Space1" style="text;html=1;points=[];align=left;verticalAlign=top;spacingTop=-4;fontSize=14;fontFamily=Verdana;" parent="1" vertex="1">
          <mxGeometry x="330" y="47" width="110" height="20" as="geometry" />
        </mxCell>
        <mxCell id="677b7b8949515195-12" value="Work Space2" style="text;html=1;points=[];align=left;verticalAlign=top;spacingTop=-4;fontSize=14;fontFamily=Verdana;gradientColor=#b3b3b3;fillColor=#f5f5f5;strokeColor=#666666;" parent="1" vertex="1">
          <mxGeometry x="477" y="47" width="103" height="20" as="geometry" />
        </mxCell>
        <mxCell id="677b7b8949515195-13" value="Work Space3" style="text;html=1;points=[];align=left;verticalAlign=top;spacingTop=-4;fontSize=14;fontFamily=Verdana" parent="1" vertex="1">
          <mxGeometry x="623" y="47" width="97" height="20" as="geometry" />
        </mxCell>
        <mxCell id="677b7b8949515195-27" value="组件集合" style="text;html=1;points=[];align=left;verticalAlign=top;spacingTop=-4;fontSize=14;fontFamily=Verdana" parent="1" vertex="1">
          <mxGeometry x="710" y="339" width="90" height="20" as="geometry" />
        </mxCell>
        <mxCell id="677b7b8949515195-29" value="文件处理" style="text;html=1;points=[];align=left;verticalAlign=top;spacingTop=-4;fontSize=14;fontFamily=Verdana;fillColor=#60a917;strokeColor=#2D7600;fontColor=#ffffff;" parent="1" vertex="1">
          <mxGeometry x="710" y="410" width="60" height="20" as="geometry" />
        </mxCell>
        <mxCell id="677b7b8949515195-30" value="内部逻辑" style="text;html=1;points=[];align=left;verticalAlign=top;spacingTop=-4;fontSize=14;fontFamily=Verdana;fillColor=#60a917;strokeColor=#2D7600;fontColor=#ffffff;" parent="1" vertex="1">
          <mxGeometry x="710" y="446" width="60" height="20" as="geometry" />
        </mxCell>
        <mxCell id="677b7b8949515195-39" value="版本构建" style="text;html=1;points=[];align=left;verticalAlign=top;spacingTop=-4;fontSize=14;fontFamily=Verdana;fillColor=#60a917;strokeColor=#2D7600;fontColor=#ffffff;" parent="1" vertex="1">
          <mxGeometry x="710" y="482" width="60" height="20" as="geometry" />
        </mxCell>
        <mxCell id="_-NGtjVIes7nd89tp72T-2" value="会签" style="text;html=1;points=[];align=left;verticalAlign=top;spacingTop=-4;fontSize=14;fontFamily=Verdana;fillColor=#60a917;strokeColor=#2D7600;fontColor=#ffffff;" parent="1" vertex="1">
          <mxGeometry x="710" y="374" width="60" height="20" as="geometry" />
        </mxCell>
        <mxCell id="_-NGtjVIes7nd89tp72T-7" value="开发人员作战画布&lt;br&gt;可视化开发助手" style="rounded=0;whiteSpace=wrap;html=1;shadow=1;gradientColor=#b3b3b3;fillColor=#f5f5f5;strokeColor=#666666;" parent="1" vertex="1">
          <mxGeometry x="30" y="112" width="150" height="38" as="geometry" />
        </mxCell>
        <mxCell id="pIeJm5PnLJ2gaNe_T8Pt-1" value="" style="whiteSpace=wrap;html=1;rounded=0;shadow=0;labelBackgroundColor=none;strokeWidth=1;fillColor=none;fontFamily=Verdana;fontSize=12;align=center;comic=1;" parent="1" vertex="1">
          <mxGeometry x="880" y="120" width="160" height="540" as="geometry" />
        </mxCell>
        <mxCell id="pIeJm5PnLJ2gaNe_T8Pt-2" value="活动规则与属性" style="text;html=1;points=[];align=left;verticalAlign=top;spacingTop=-4;fontSize=14;fontFamily=Verdana" parent="1" vertex="1">
          <mxGeometry x="890" y="140" width="170" height="20" as="geometry" />
        </mxCell>
        <mxCell id="pIeJm5PnLJ2gaNe_T8Pt-3" value="受理角色" style="text;html=1;points=[];align=left;verticalAlign=top;spacingTop=-4;fontSize=14;fontFamily=Verdana" parent="1" vertex="1">
          <mxGeometry x="890" y="211" width="170" height="20" as="geometry" />
        </mxCell>
        <mxCell id="pIeJm5PnLJ2gaNe_T8Pt-4" value="智能处理/人工处理" style="text;html=1;points=[];align=left;verticalAlign=top;spacingTop=-4;fontSize=14;fontFamily=Verdana" parent="1" vertex="1">
          <mxGeometry x="890" y="247" width="140" height="20" as="geometry" />
        </mxCell>
        <mxCell id="pIeJm5PnLJ2gaNe_T8Pt-5" value="Section 7" style="text;html=1;points=[];align=left;verticalAlign=top;spacingTop=-4;fontSize=14;fontFamily=Verdana" parent="1" vertex="1">
          <mxGeometry x="890" y="354" width="170" height="20" as="geometry" />
        </mxCell>
        <mxCell id="pIeJm5PnLJ2gaNe_T8Pt-6" value="Section 8" style="text;html=1;points=[];align=left;verticalAlign=top;spacingTop=-4;fontSize=14;fontFamily=Verdana" parent="1" vertex="1">
          <mxGeometry x="890" y="390" width="170" height="20" as="geometry" />
        </mxCell>
        <mxCell id="pIeJm5PnLJ2gaNe_T8Pt-7" value="Section 9" style="text;html=1;points=[];align=left;verticalAlign=top;spacingTop=-4;fontSize=14;fontFamily=Verdana" parent="1" vertex="1">
          <mxGeometry x="890" y="426" width="170" height="20" as="geometry" />
        </mxCell>
        <mxCell id="pIeJm5PnLJ2gaNe_T8Pt-8" value="Section 10" style="text;html=1;points=[];align=left;verticalAlign=top;spacingTop=-4;fontSize=14;fontFamily=Verdana" parent="1" vertex="1">
          <mxGeometry x="890" y="461" width="170" height="20" as="geometry" />
        </mxCell>
        <mxCell id="pIeJm5PnLJ2gaNe_T8Pt-9" value="Section 11" style="text;html=1;points=[];align=left;verticalAlign=top;spacingTop=-4;fontSize=14;fontFamily=Verdana" parent="1" vertex="1">
          <mxGeometry x="890" y="497" width="170" height="20" as="geometry" />
        </mxCell>
        <mxCell id="pIeJm5PnLJ2gaNe_T8Pt-10" value="Section 12" style="text;html=1;points=[];align=left;verticalAlign=top;spacingTop=-4;fontSize=14;fontFamily=Verdana" parent="1" vertex="1">
          <mxGeometry x="890" y="533" width="170" height="20" as="geometry" />
        </mxCell>
        <mxCell id="pIeJm5PnLJ2gaNe_T8Pt-11" value="Section 13" style="text;html=1;points=[];align=left;verticalAlign=top;spacingTop=-4;fontSize=14;fontFamily=Verdana" parent="1" vertex="1">
          <mxGeometry x="890" y="569" width="170" height="20" as="geometry" />
        </mxCell>
        <mxCell id="pIeJm5PnLJ2gaNe_T8Pt-12" value="Section 14" style="text;html=1;points=[];align=left;verticalAlign=top;spacingTop=-4;fontSize=14;fontFamily=Verdana" parent="1" vertex="1">
          <mxGeometry x="890" y="604" width="170" height="20" as="geometry" />
        </mxCell>
        <mxCell id="pIeJm5PnLJ2gaNe_T8Pt-13" value="提醒方式" style="text;html=1;points=[];align=left;verticalAlign=top;spacingTop=-4;fontSize=14;fontFamily=Verdana" parent="1" vertex="1">
          <mxGeometry x="890" y="283" width="130" height="20" as="geometry" />
        </mxCell>
        <mxCell id="pIeJm5PnLJ2gaNe_T8Pt-14" value="Section 6" style="text;html=1;points=[];align=left;verticalAlign=top;spacingTop=-4;fontSize=14;fontFamily=Verdana" parent="1" vertex="1">
          <mxGeometry x="890" y="319" width="170" height="20" as="geometry" />
        </mxCell>
        <mxCell id="pIeJm5PnLJ2gaNe_T8Pt-15" value="Section 15" style="text;html=1;points=[];align=left;verticalAlign=top;spacingTop=-4;fontSize=14;fontFamily=Verdana" parent="1" vertex="1">
          <mxGeometry x="890" y="640" width="170" height="20" as="geometry" />
        </mxCell>
        <mxCell id="pIeJm5PnLJ2gaNe_T8Pt-16" value="卡片信息" style="text;html=1;points=[];align=left;verticalAlign=top;spacingTop=-4;fontSize=14;fontFamily=Verdana" parent="1" vertex="1">
          <mxGeometry x="890" y="175" width="170" height="20" as="geometry" />
        </mxCell>
        <mxCell id="pIeJm5PnLJ2gaNe_T8Pt-18" value="根据会签需求，基于编排器组合已有服务和组件形成业务服务" style="rounded=0;whiteSpace=wrap;html=1;shadow=1;" parent="1" vertex="1">
          <mxGeometry x="200" y="112" width="480" height="28" as="geometry" />
        </mxCell>
        <mxCell id="xv8ChxIpet4k5FEaEmPz-1" value="服务集合" style="text;html=1;points=[];align=left;verticalAlign=top;spacingTop=-4;fontSize=14;fontFamily=Verdana" vertex="1" parent="1">
          <mxGeometry x="710" y="140" width="90" height="20" as="geometry" />
        </mxCell>
        <mxCell id="xv8ChxIpet4k5FEaEmPz-2" value="数据访问" style="text;html=1;points=[];align=left;verticalAlign=top;spacingTop=-4;fontSize=14;fontFamily=Verdana;fillColor=#60a917;strokeColor=#2D7600;fontColor=#ffffff;" vertex="1" parent="1">
          <mxGeometry x="710" y="374" width="60" height="20" as="geometry" />
        </mxCell>
        <mxCell id="xv8ChxIpet4k5FEaEmPz-7" value="CD服务" style="text;html=1;points=[];align=left;verticalAlign=top;spacingTop=-4;fontSize=14;fontFamily=Verdana;fillColor=#60a917;strokeColor=#2D7600;fontColor=#ffffff;" vertex="1" parent="1">
          <mxGeometry x="710" y="202" width="60" height="20" as="geometry" />
        </mxCell>
        <mxCell id="xv8ChxIpet4k5FEaEmPz-8" value="制品核验" style="text;html=1;points=[];align=left;verticalAlign=top;spacingTop=-4;fontSize=14;fontFamily=Verdana;fillColor=#60a917;strokeColor=#2D7600;fontColor=#ffffff;" vertex="1" parent="1">
          <mxGeometry x="710" y="238" width="60" height="20" as="geometry" />
        </mxCell>
        <mxCell id="xv8ChxIpet4k5FEaEmPz-9" value="版本构建" style="text;html=1;points=[];align=left;verticalAlign=top;spacingTop=-4;fontSize=14;fontFamily=Verdana;fillColor=#60a917;strokeColor=#2D7600;fontColor=#ffffff;" vertex="1" parent="1">
          <mxGeometry x="710" y="274" width="60" height="20" as="geometry" />
        </mxCell>
        <mxCell id="xv8ChxIpet4k5FEaEmPz-10" value="CI服务" style="text;html=1;points=[];align=left;verticalAlign=top;spacingTop=-4;fontSize=14;fontFamily=Verdana;fillColor=#60a917;strokeColor=#2D7600;fontColor=#ffffff;" vertex="1" parent="1">
          <mxGeometry x="710" y="166" width="60" height="20" as="geometry" />
        </mxCell>
        <mxCell id="xv8ChxIpet4k5FEaEmPz-11" value="数据访问组件，获得" style="rounded=1;whiteSpace=wrap;html=1;shadow=1;fontSize=14;fillColor=#60a917;strokeColor=#2D7600;fontColor=#ffffff;" vertex="1" parent="1">
          <mxGeometry x="280" y="180" width="120" height="40" as="geometry" />
        </mxCell>
        <mxCell id="xv8ChxIpet4k5FEaEmPz-12" value="分析会签结论" style="rounded=1;whiteSpace=wrap;html=1;shadow=1;fillColor=#60a917;strokeColor=#2D7600;fontColor=#ffffff;" vertex="1" parent="1">
          <mxGeometry x="280" y="538" width="120" height="40" as="geometry" />
        </mxCell>
        <mxCell id="xv8ChxIpet4k5FEaEmPz-13" value="通知服务" style="text;html=1;points=[];align=left;verticalAlign=top;spacingTop=-4;fontSize=14;fontFamily=Verdana;fillColor=#60a917;strokeColor=#2D7600;fontColor=#ffffff;" vertex="1" parent="1">
          <mxGeometry x="710" y="309" width="60" height="20" as="geometry" />
        </mxCell>
        <mxCell id="xv8ChxIpet4k5FEaEmPz-21" value="会签" style="text;html=1;points=[];align=left;verticalAlign=top;spacingTop=-4;fontSize=14;fontFamily=Verdana;fillColor=#60a917;strokeColor=#2D7600;fontColor=#ffffff;" vertex="1" parent="1">
          <mxGeometry x="710" y="374" width="60" height="20" as="geometry" />
        </mxCell>
        <mxCell id="xv8ChxIpet4k5FEaEmPz-23" value="规则判断" style="rhombus;whiteSpace=wrap;html=1;shadow=1;fontSize=14;fillColor=#60a917;strokeColor=#2D7600;fontColor=#ffffff;" vertex="1" parent="1">
          <mxGeometry x="300" y="247" width="80" height="80" as="geometry" />
        </mxCell>
        <mxCell id="xv8ChxIpet4k5FEaEmPz-24" value="" style="endArrow=classic;html=1;fontSize=14;exitX=0.5;exitY=1;exitDx=0;exitDy=0;" edge="1" parent="1" source="xv8ChxIpet4k5FEaEmPz-11" target="xv8ChxIpet4k5FEaEmPz-23">
          <mxGeometry width="50" height="50" relative="1" as="geometry">
            <mxPoint x="340" y="280" as="sourcePoint" />
            <mxPoint x="390" y="230" as="targetPoint" />
          </mxGeometry>
        </mxCell>
        <mxCell id="xv8ChxIpet4k5FEaEmPz-25" value="" style="endArrow=classic;html=1;fontSize=14;entryX=0.5;entryY=0;entryDx=0;entryDy=0;exitX=0.5;exitY=1;exitDx=0;exitDy=0;" edge="1" parent="1" source="xv8ChxIpet4k5FEaEmPz-23" target="xv8ChxIpet4k5FEaEmPz-29">
          <mxGeometry width="50" height="50" relative="1" as="geometry">
            <mxPoint x="340" y="220" as="sourcePoint" />
            <mxPoint x="340" y="421" as="targetPoint" />
            <Array as="points" />
          </mxGeometry>
        </mxCell>
        <mxCell id="xv8ChxIpet4k5FEaEmPz-27" value="" style="endArrow=classic;html=1;fontSize=14;exitX=0.5;exitY=1;exitDx=0;exitDy=0;entryX=0.5;entryY=0;entryDx=0;entryDy=0;" edge="1" parent="1" target="xv8ChxIpet4k5FEaEmPz-12">
          <mxGeometry width="50" height="50" relative="1" as="geometry">
            <mxPoint x="340" y="461" as="sourcePoint" />
            <mxPoint x="570" y="450" as="targetPoint" />
          </mxGeometry>
        </mxCell>
        <mxCell id="xv8ChxIpet4k5FEaEmPz-30" value="" style="edgeStyle=orthogonalEdgeStyle;rounded=0;orthogonalLoop=1;jettySize=auto;html=1;fontSize=14;" edge="1" parent="1" source="xv8ChxIpet4k5FEaEmPz-28" target="xv8ChxIpet4k5FEaEmPz-12">
          <mxGeometry relative="1" as="geometry" />
        </mxCell>
        <mxCell id="xv8ChxIpet4k5FEaEmPz-28" value="&lt;span style=&quot;color: rgb(255 , 255 , 255) ; font-size: 12px&quot;&gt;群发会签通知&lt;/span&gt;" style="shape=process;whiteSpace=wrap;html=1;backgroundOutline=1;shadow=1;fontSize=14;fillColor=#60a917;strokeColor=#2D7600;fontColor=#ffffff;" vertex="1" parent="1">
          <mxGeometry x="280" y="442" width="120" height="60" as="geometry" />
        </mxCell>
        <mxCell id="xv8ChxIpet4k5FEaEmPz-29" value="内部逻辑运算" style="rounded=1;whiteSpace=wrap;html=1;shadow=1;fillColor=#60a917;strokeColor=#2D7600;fontColor=#ffffff;" vertex="1" parent="1">
          <mxGeometry x="280" y="365" width="120" height="40" as="geometry" />
        </mxCell>
        <mxCell id="xv8ChxIpet4k5FEaEmPz-32" value="" style="endArrow=classic;html=1;fontSize=14;exitX=0.5;exitY=1;exitDx=0;exitDy=0;" edge="1" parent="1" source="xv8ChxIpet4k5FEaEmPz-29" target="xv8ChxIpet4k5FEaEmPz-28">
          <mxGeometry width="50" height="50" relative="1" as="geometry">
            <mxPoint x="480" y="400" as="sourcePoint" />
            <mxPoint x="530" y="350" as="targetPoint" />
          </mxGeometry>
        </mxCell>
      </root>
    </mxGraphModel>
  </diagram>
</mxfile>
